<?xml version="1.0" standalone="no"?><!DOCTYPE svg PUBLIC "-//W3C//DTD SVG 1.1//EN" "http://www.w3.org/Graphics/SVG/1.1/DTD/svg11.dtd"><svg t="1697432949004" class="icon" viewBox="0 0 1024 1024" version="1.1" xmlns="http://www.w3.org/2000/svg" p-id="7046" xmlns:xlink="http://www.w3.org/1999/xlink" width="200" height="200"><path d="M922.562 338.544c-22.444-53.065-54.568-100.715-95.479-141.626s-88.562-73.035-141.627-95.48C630.499 78.192 572.14 66.406 512 66.406s-118.499 11.786-173.456 35.031c-53.065 22.445-100.715 54.569-141.626 95.48-40.911 40.912-73.035 88.562-95.48 141.626C78.192 393.501 66.406 451.861 66.406 512c0 60.14 11.786 118.498 35.031 173.456 22.445 53.065 54.569 100.715 95.48 141.626s88.561 73.036 141.626 95.48C393.501 945.808 451.86 957.594 512 957.594s118.499-11.786 173.456-35.031c53.065-22.444 100.716-54.569 141.627-95.48s73.035-88.561 95.479-141.626C945.808 630.498 957.594 572.14 957.594 512c0-60.139-11.786-118.499-35.032-173.456zM512 887.594c-95.172 0-184.938-35.163-254.469-99.337 3.282-62.972 29.356-121.709 74.271-166.624C379.93 573.505 443.926 547 512 547s132.07 26.505 180.198 74.633c44.915 44.915 70.988 103.652 74.271 166.624C696.938 852.43 607.173 887.594 512 887.594zM402.084 367.085c0-60.607 49.308-109.916 109.916-109.916s109.916 49.308 109.916 109.916S572.608 477 512 477c-60.607 0-109.916-49.308-109.916-109.915z m423.9 351.24a323.407 323.407 0 0 0-14.692-42.948c-16.361-38.687-39.776-73.422-69.597-103.241-29.819-29.82-64.555-53.235-103.241-69.597-1.859-0.786-3.729-1.536-5.598-2.286 36.259-32.937 59.06-80.439 59.06-133.168 0-99.206-80.71-179.916-179.916-179.916s-179.916 80.71-179.916 179.916c0 52.728 22.801 100.231 59.06 133.167-1.87 0.75-3.74 1.5-5.599 2.286-38.686 16.362-73.421 39.777-103.241 69.597-29.82 29.819-53.236 64.555-69.597 103.241a323.22 323.22 0 0 0-14.693 42.948C157.927 657.589 136.406 586.45 136.406 512c0-100.325 39.068-194.645 110.009-265.585 70.94-70.94 165.26-110.009 265.585-110.009 100.325 0 194.646 39.068 265.585 110.009 70.94 70.94 110.009 165.26 110.009 265.585 0 74.45-21.521 145.589-61.61 206.325z" p-id="7047"></path></svg>