<?xml version="1.0" standalone="no"?><!DOCTYPE svg PUBLIC "-//W3C//DTD SVG 1.1//EN" "http://www.w3.org/Graphics/SVG/1.1/DTD/svg11.dtd"><svg height="199" node-id="1" sillyvg="true" template-height="199" template-width="370" version="1.1" viewBox="0 0 370 199" width="370" xmlns="http://www.w3.org/2000/svg" xmlns:xlink="http://www.w3.org/1999/xlink"><defs node-id="72"><linearGradient gradientUnits="objectBoundingBox" id="linearGradient-1" node-id="7" spreadMethod="pad" x1="-0.47019014" x2="0.68868846" y1="-1.8596389" y2="1"><stop offset="0" stop-color="#d2d2d2"></stop><stop offset="1" stop-color="#d2d2d2" stop-opacity="0"></stop></linearGradient><linearGradient gradientUnits="objectBoundingBox" id="linearGradient-2" node-id="10" spreadMethod="pad" x1="1.1899998" x2="0.5450187" y1="-1.1086411" y2="0.5558718"><stop offset="0" stop-color="#d2d2d2"></stop><stop offset="1" stop-color="#d2d2d2" stop-opacity="0"></stop></linearGradient><linearGradient gradientUnits="objectBoundingBox" id="linearGradient-3" node-id="13" spreadMethod="pad" x1="0.5" x2="0.5" y1="-2.211569" y2="1"><stop offset="0" stop-color="#d2d2d2"></stop><stop offset="1" stop-color="#d2d2d2" stop-opacity="0"></stop></linearGradient><linearGradient gradientUnits="objectBoundingBox" id="linearGradient-4" node-id="16" spreadMethod="pad" x1="1.0008096" x2="0.38826305" y1="-0.9778046" y2="1.0473608"><stop offset="0" stop-color="#d2d2d2"></stop><stop offset="1" stop-color="#d2d2d2" stop-opacity="0"></stop></linearGradient><linearGradient gradientUnits="objectBoundingBox" id="linearGradient-5" node-id="19" spreadMethod="pad" x1="0.5" x2="0.5" y1="-2.301163" y2="1"><stop offset="0" stop-color="#d2d2d2"></stop><stop offset="1" stop-color="#d2d2d2" stop-opacity="0"></stop></linearGradient><linearGradient gradientUnits="objectBoundingBox" id="linearGradient-6" node-id="22" spreadMethod="pad" x1="0.5" x2="0.5" y1="-1.6920329" y2="1"><stop offset="0" stop-color="#d2d2d2"></stop><stop offset="1" stop-color="#d2d2d2" stop-opacity="0"></stop></linearGradient><linearGradient gradientUnits="objectBoundingBox" id="linearGradient-7" node-id="25" spreadMethod="pad" x1="0.5176785" x2="0.538444" y1="0.23454715" y2="0.6717992"><stop offset="0" stop-color="#e4e4e4"></stop><stop offset="1" stop-color="#e5e5e5"></stop></linearGradient><linearGradient gradientUnits="objectBoundingBox" id="linearGradient-8" node-id="28" spreadMethod="pad" x1="0.5176785" x2="0.538444" y1="0.23454715" y2="0.6717992"><stop offset="0" stop-color="#efefef"></stop><stop offset="1" stop-color="#f9f9f9"></stop></linearGradient><linearGradient gradientUnits="objectBoundingBox" id="linearGradient-9" node-id="31" spreadMethod="pad" x1="0.5239691" x2="0.55212367" y1="0.23454715" y2="0.6717992"><stop offset="0" stop-color="#ececec"></stop><stop offset="1" stop-color="#e9e9e9"></stop></linearGradient><linearGradient gradientUnits="objectBoundingBox" id="linearGradient-10" node-id="34" spreadMethod="pad" x1="0.5" x2="0.5" y1="0.07701862" y2="1"><stop offset="0" stop-color="#f4f4f4"></stop><stop offset="1" stop-color="#f6f6f6"></stop></linearGradient><linearGradient gradientUnits="objectBoundingBox" id="linearGradient-11" node-id="37" spreadMethod="pad" x1="0.5" x2="0.5" y1="0" y2="0.91443986"><stop offset="0" stop-color="#e2e2e2"></stop><stop offset="1" stop-color="#ecebeb"></stop></linearGradient><linearGradient gradientUnits="objectBoundingBox" id="linearGradient-12" node-id="40" spreadMethod="pad" x1="0.5" x2="0.5" y1="0" y2="1"><stop offset="0" stop-color="#dcdbdb"></stop><stop offset="1" stop-color="#f3f3f3"></stop></linearGradient><linearGradient gradientUnits="objectBoundingBox" id="linearGradient-14" node-id="46" spreadMethod="pad" x1="-0.13232823" x2="1" y1="0.04595832" y2="0.9437978"><stop offset="0" stop-color="#ffffff"></stop><stop offset="1" stop-color="#478ffc"></stop></linearGradient></defs><g node-id="151"><g node-id="152"><g node-id="153"><path d="M 73.26 159.55 L 70.32 157.97 L 67.38 155.84 L 64.69 153.33 L 62.35 150.49 L 60.48 147.37 L 59.26 144.11 L 58.84 141.86 L 58.82 139.61 L 59.20 137.33 L 60.12 137.25 L 60.99 137.44 L 61.76 137.88 L 62.38 138.57 L 63.38 140.06 L 65.80 143.40 L 68.77 146.82 L 70.29 148.10 L 71.41 148.61 L 72.03 148.57 L 72.51 148.11 L 72.87 147.01 L 72.91 144.79 L 72.26 140.28 L 70.16 131.08 L 68.12 121.88 L 67.42 117.22 L 67.07 112.47 L 67.23 108.99 L 67.74 106.07 L 68.57 103.62 L 69.78 101.35 L 71.15 99.62 L 72.67 98.35 L 74.42 97.47 L 76.19 97.10 L 78.04 97.20 L 79.80 97.78 L 81.55 98.92 L 83.34 100.72 L 84.76 102.84 L 86.07 105.70 L 87.23 109.47 L 87.81 112.84 L 88.86 118.59 L 89.59 121.76 L 90.45 124.74 L 91.51 127.46 L 92.62 129.31 L 93.54 130.18 L 94.45 130.49 L 95.44 130.32 L 96.36 129.64 L 97.02 128.71 L 98.23 126.39 L 99.30 123.89 L 100.40 121.42 L 101.65 119.26 L 102.68 118.01 L 103.92 117.06 L 105.42 116.37 L 106.87 116.10 L 108.26 116.16 L 109.64 116.53 L 111.58 117.52 L 113.40 118.98 L 114.99 120.73 L 116.30 122.62 L 117.68 125.18 L 119.17 128.53 L 120.47 132.13 L 121.58 136.07 L 122.36 140.10 L 122.70 144.04 L 122.64 146.66 L 122.29 149.06 L 121.67 151.28 L 120.71 153.34 L 119.39 155.10 L 117.67 156.60 L 115.64 157.80 L 113.22 158.91 L 110.36 159.90 L 105.88 161.04 L 100.90 161.86 L 95.79 162.34 L 90.66 162.48 L 85.61 162.27 L 81.02 161.74 L 76.71 160.82 L 73.35 159.64 L 73.26 159.55 Z" fill="url(#linearGradient-1)" fill-rule="nonzero" group-id="1,2,3" id="路径" node-id="53" stroke="none" target-height="65.38158" target-width="63.88073" target-x="58.81823" target-y="97.09566"></path><path d="M 273.19 180.43 L 272.07 177.29 L 271.31 173.74 L 271.00 170.07 L 271.17 166.39 L 271.58 163.97 L 272.25 161.71 L 273.16 159.58 L 274.37 157.63 L 275.87 155.95 L 277.69 154.50 L 278.43 155.07 L 278.94 155.81 L 279.20 156.67 L 279.19 157.60 L 278.92 159.38 L 278.48 163.48 L 278.38 168.01 L 278.65 169.98 L 279.14 171.11 L 279.63 171.50 L 280.29 171.48 L 281.30 170.90 L 282.81 169.28 L 285.36 165.50 L 290.02 157.26 L 294.69 149.07 L 297.27 145.15 L 300.17 141.39 L 302.61 138.90 L 304.95 137.08 L 307.21 135.81 L 309.63 134.93 L 311.80 134.56 L 313.78 134.64 L 315.67 135.16 L 317.24 136.07 L 318.54 137.39 L 319.46 139.01 L 320.00 141.03 L 320.12 143.57 L 319.76 146.10 L 318.81 149.10 L 317.15 152.68 L 315.32 155.57 L 312.25 160.54 L 310.66 163.38 L 309.29 166.16 L 308.25 168.90 L 307.84 171.01 L 307.93 172.28 L 308.40 173.12 L 309.25 173.67 L 310.38 173.77 L 311.49 173.53 L 313.94 172.62 L 316.42 171.48 L 318.90 170.39 L 321.29 169.62 L 322.89 169.38 L 324.46 169.49 L 326.04 169.97 L 327.29 170.75 L 328.28 171.72 L 329.06 172.92 L 329.83 174.96 L 330.20 177.26 L 330.21 179.62 L 329.91 181.90 L 328.94 185.25 L 327.34 188.63 L 325.21 191.77 L 322.55 194.58 L 320.53 196.19 L 318.33 197.51 L 315.93 198.55 L 313.41 199.23 L 310.73 199.50 L 307.84 199.36 L 303.26 198.54 L 298.08 197.20 L 292.90 195.44 L 287.81 193.24 L 284.52 191.51 L 281.56 189.64 L 278.89 187.63 L 276.48 185.35 L 274.61 182.98 L 273.22 180.52 L 273.19 180.43 Z" fill="url(#linearGradient-2)" fill-rule="nonzero" group-id="1,2,3" id="路径" node-id="54" stroke="none" target-height="64.94034" target-width="59.21286" target-x="270.99768" target-y="134.56235"></path><path d="M 370.52 199.36 L 361.69 193.58 L 352.37 188.06 L 342.54 182.79 L 332.18 177.78 L 321.73 173.23 L 310.86 168.98 L 299.54 165.06 L 287.77 161.45 L 275.97 158.30 L 263.82 155.53 L 251.31 153.13 L 238.42 151.12 L 225.55 149.56 L 212.41 148.43 L 198.99 147.75 L 185.26 147.50 L 171.53 147.75 L 158.11 148.43 L 144.96 149.56 L 132.10 151.12 L 119.21 153.13 L 106.70 155.53 L 94.55 158.30 L 82.75 161.45 L 70.98 165.06 L 59.66 168.98 L 48.79 173.23 L 38.33 177.78 L 27.98 182.79 L 18.15 188.06 L 8.83 193.58 L 0.00 199.36 L 370.52 199.36 Z" fill="url(#linearGradient-3)" fill-rule="nonzero" group-id="1,2,3" id="路径" node-id="55" stroke="none" target-height="51.851852" target-width="370.51852" target-x="0" target-y="147.5047"></path><path d="M 293.47 103.06 L 292.10 105.02 L 290.97 107.20 L 290.16 109.52 L 289.75 111.90 L 289.80 114.31 L 290.40 116.70 L 291.20 118.11 L 292.20 119.15 L 293.27 120.11 L 294.22 121.17 L 294.84 122.45 L 295.04 124.46 L 294.61 126.67 L 293.86 128.76 L 292.79 130.75 L 290.55 134.31 L 288.01 137.63 L 285.19 140.74 L 286.81 142.39 L 287.92 144.36 L 288.49 146.55 L 288.48 148.86 L 287.94 151.12 L 287.05 153.25 L 285.84 155.21 L 284.32 156.97 L 283.20 158.02 L 281.85 158.75 L 280.43 158.91 L 279.01 158.75 L 274.46 157.76 L 270.05 156.35 L 265.77 154.52 L 263.82 153.49 L 262.03 152.23 L 260.56 150.70 L 259.59 148.85 L 259.29 147.33 L 259.37 146.26 L 259.73 145.51 L 260.68 144.55 L 261.96 143.77 L 262.42 143.51 L 263.73 142.68 L 264.77 141.57 L 265.52 139.87 L 265.98 137.99 L 266.56 134.23 L 266.93 130.07 L 267.20 127.79 L 267.76 125.74 L 268.40 124.56 L 269.33 123.65 L 270.60 123.00 L 273.22 122.53 L 275.83 122.05 L 277.51 121.26 L 278.88 120.20 L 279.99 118.86 L 281.34 116.53 L 282.50 113.93 L 282.76 113.29 L 284.11 110.36 L 284.89 109.00 L 285.79 107.79 L 286.89 106.81 L 288.33 105.94 L 291.34 104.48 L 292.67 103.74 L 293.47 103.06 Z M 282.80 123.79 L 281.42 125.52 L 278.15 130.16 L 276.26 133.25 L 274.28 136.93 L 272.53 140.84 L 271.11 145.02 L 270.42 147.89 L 270.03 150.76 L 269.94 153.63 L 274.23 153.63 L 274.59 150.73 L 275.89 143.42 L 276.98 138.85 L 278.51 133.75 L 280.42 128.68 L 282.80 123.79 Z" fill="url(#linearGradient-4)" fill-rule="nonzero" group-id="1,2,3" id="形状结合" node-id="56" stroke="none" target-height="55.853195" target-width="35.745422" target-x="259.29163" target-y="103.06026"></path><path d="M 104.14 22.01 L 104.14 22.01 L 103.89 19.67 L 103.12 17.54 L 101.90 15.66 L 100.27 14.10 L 98.32 12.96 L 96.07 12.28 L 93.72 12.15 L 91.50 12.57 L 89.44 13.48 L 87.65 14.84 L 86.21 16.58 L 85.19 18.70 L 83.00 18.96 L 81.02 19.76 L 79.31 21.05 L 77.97 22.79 L 77.15 24.83 L 76.90 26.95 L 77.22 29.07 L 78.11 31.08 L 79.50 32.78 L 81.25 34.01 L 83.26 34.75 L 85.44 34.94 L 103.33 34.94 L 105.00 34.69 L 106.45 34.10 L 107.73 33.15 L 108.74 31.92 L 109.40 30.50 L 109.73 28.85 L 109.61 27.16 L 109.12 25.67 L 108.27 24.33 L 107.13 23.23 L 105.76 22.46 L 104.14 22.01 L 104.14 22.01 Z" fill="url(#linearGradient-5)" fill-rule="nonzero" group-id="1,2,3" id="路径" node-id="57" stroke="none" target-height="22.784378" target-width="32.824524" target-x="76.90355" target-y="12.152421"></path><path d="M 178.07 12.21 L 178.07 12.15 L 177.91 10.19 L 177.47 8.36 L 176.75 6.64 L 175.21 4.32 L 173.18 2.41 L 171.61 1.41 L 169.88 0.67 L 167.97 0.18 L 166.02 0.00 L 164.14 0.13 L 162.32 0.54 L 159.77 1.67 L 157.55 3.34 L 156.29 4.72 L 155.27 6.29 L 154.46 8.08 L 152.61 8.29 L 150.91 8.78 L 149.35 9.55 L 147.94 10.58 L 146.75 11.81 L 145.77 13.25 L 145.04 14.84 L 144.61 16.54 L 144.46 18.40 L 144.66 20.25 L 145.15 21.94 L 145.93 23.50 L 146.96 24.91 L 148.19 26.10 L 149.63 27.09 L 151.22 27.81 L 152.92 28.25 L 154.78 28.39 L 177.00 28.39 L 179.08 28.13 L 180.94 27.38 L 182.55 26.20 L 183.83 24.67 L 184.70 22.86 L 185.10 20.80 L 184.96 18.71 L 184.32 16.80 L 183.25 15.13 L 181.80 13.76 L 180.05 12.78 L 178.01 12.26 L 178.07 12.21 Z" fill="url(#linearGradient-6)" fill-rule="nonzero" group-id="1,2,3" id="路径" node-id="58" stroke="none" target-height="28.390203" target-width="40.63434" target-x="144.46297" target-y="0.0033842213"></path></g><g node-id="154"><path d="M 225.03 66.00 L 259.00 76.11 L 237.46 179.00 L 195.05 163.06 L 211.02 142.48 L 203.26 99.96 Z" fill="url(#linearGradient-7)" fill-rule="nonzero" group-id="1,2,4" id="路径-87" node-id="60" stroke="none" target-height="113" target-width="63.951614" target-x="195.04839" target-y="66"></path><path d="M 221.88 65.00 L 255.85 75.11 L 234.31 178.00 L 191.90 162.06 L 207.87 141.48 L 200.12 98.96 Z" fill="url(#linearGradient-8)" fill-rule="nonzero" group-id="1,2,4" id="路径-87备份" node-id="61" stroke="none" target-height="113" target-width="63.9516" target-x="191.90323" target-y="65"></path><path d="M 239.08 97.00 L 238.90 99.20 L 238.42 101.21 L 237.65 103.06 L 236.60 104.76 L 235.34 106.18 L 233.89 107.36 L 232.25 108.25 L 230.50 108.80 L 228.60 109.00 L 226.69 108.80 L 224.94 108.25 L 223.31 107.36 L 221.85 106.18 L 220.60 104.76 L 219.54 103.06 L 218.77 101.21 L 218.29 99.20 L 218.11 97.00 L 218.29 94.80 L 218.77 92.79 L 219.54 90.94 L 220.60 89.24 L 221.85 87.82 L 223.31 86.64 L 224.94 85.75 L 226.69 85.20 L 228.60 85.00 L 230.50 85.20 L 232.25 85.75 L 233.89 86.64 L 235.34 87.82 L 236.60 89.24 L 237.65 90.94 L 238.42 92.79 L 238.90 94.80 L 239.08 97.00 Z" fill="#e4e2e2" fill-rule="nonzero" group-id="1,2,4" id="椭圆形" node-id="62" stroke="none" target-height="24" target-width="20.967743" target-x="218.1129" target-y="85"></path><path d="M 132.15 60.00 L 201.34 60.00 L 186.90 96.32 L 201.34 137.40 L 190.67 165.00 L 132.15 165.00 Z" fill="url(#linearGradient-9)" fill-rule="nonzero" group-id="1,2,4" id="路径-15" node-id="63" stroke="none" target-height="105" target-width="69.19356" target-x="132.14516" target-y="60"></path><path d="M 129.00 59.00 L 198.19 59.00 L 183.75 95.32 L 198.19 136.40 L 187.52 164.00 L 129.00 164.00 Z" fill="url(#linearGradient-10)" fill-rule="nonzero" group-id="1,2,4" id="路径-15备份" node-id="64" stroke="none" target-height="105" target-width="69.19354" target-x="129" target-y="59"></path><path d="M 129.00 147.90 L 170.34 97.00 L 200.29 136.36 L 189.67 163.64 L 129.00 164.00 Z" fill="url(#linearGradient-11)" fill-rule="nonzero" group-id="1,2,4" id="路径-65" node-id="65" stroke="none" target-height="67" target-width="71.29031" target-x="129" target-y="97"></path><path d="M 235.94 168.19 L 211.88 123.00 L 204.11 126.94 L 206.95 142.45 L 190.85 162.48 L 233.59 178.00 Z" fill="url(#linearGradient-12)" fill-rule="nonzero" group-id="1,2,4" id="路径-88" node-id="66" stroke="none" target-height="55" target-width="45.080643" target-x="190.85484" target-y="123"></path></g><g node-id="155"><path d="M 212.45 174.00 L 210.74 173.95 L 209.14 173.68 L 208.19 173.29 L 207.34 172.62 L 206.59 171.61 L 206.03 169.92 L 206.11 168.36 L 206.64 166.83 L 207.45 165.33 L 233.09 122.75 L 234.25 121.22 L 235.48 120.13 L 236.80 119.42 L 238.24 119.05 L 239.66 119.04 L 241.09 119.41 L 242.40 120.11 L 243.62 121.19 L 244.77 122.73 L 269.60 164.84 L 270.17 166.04 L 270.59 167.35 L 270.99 170.06 L 270.90 171.18 L 270.55 172.09 L 269.96 172.85 L 268.72 173.64 L 267.07 173.97 L 212.45 174.00 Z M 242.63 142.57 L 242.62 134.43 L 242.26 132.79 L 241.36 131.49 L 240.06 130.61 L 238.45 130.30 L 236.89 130.62 L 235.65 131.47 L 234.82 132.75 L 234.49 134.40 L 234.49 150.33 L 234.83 152.03 L 235.68 153.34 L 236.95 154.22 L 238.55 154.55 L 240.17 154.23 L 241.43 153.37 L 242.28 152.08 L 242.62 150.37 L 242.63 142.57 Z M 242.50 162.24 L 242.20 160.65 L 241.36 159.40 L 240.11 158.58 L 238.48 158.27 L 236.86 158.58 L 235.60 159.40 L 234.75 160.64 L 234.44 162.23 L 234.76 163.81 L 235.62 165.07 L 236.88 165.93 L 238.47 166.25 L 240.05 165.94 L 241.31 165.09 L 242.17 163.83 L 242.50 162.24 Z" fill="url(#linearGradient-14)" fill-rule="nonzero" group-id="1,2,5" id="形状" node-id="68" stroke="none" target-height="54.95652" target-width="64.96335" target-x="206.02994" target-y="119.04348"></path></g><path d="M 242.63 142.57 L 242.62 134.43 L 242.26 132.79 L 241.36 131.49 L 240.06 130.61 L 238.45 130.30 L 236.89 130.62 L 235.65 131.47 L 234.82 132.75 L 234.49 134.40 L 234.49 150.33 L 234.83 152.03 L 235.68 153.34 L 236.95 154.22 L 238.55 154.55 L 240.17 154.23 L 241.43 153.37 L 242.28 152.08 L 242.62 150.37 L 242.63 142.57 Z M 242.50 162.24 L 242.20 160.65 L 241.36 159.40 L 240.11 158.58 L 238.48 158.27 L 236.86 158.58 L 235.60 159.40 L 234.75 160.64 L 234.44 162.23 L 234.76 163.81 L 235.62 165.07 L 236.88 165.93 L 238.47 166.25 L 240.05 165.94 L 241.31 165.09 L 242.17 163.83 L 242.50 162.24 Z" fill="#ffffff" fill-rule="nonzero" group-id="1,2,6" id="形状" node-id="70" stroke="none" target-height="35.954422" target-width="8.187439" target-x="234.441" target-y="130.29573"></path></g></g></svg>